<mxfile host="app.diagrams.net" agent="Mozilla/5.0 (Windows NT 10.0; Win64; x64) AppleWebKit/537.36 (KHTML, like Gecko) Chrome/140.0.0.0 Safari/537.36" version="28.2.0">
  <diagram name="Page-1" id="7eaHqFy5I7h7ZPrxv7ZR">
    <mxGraphModel grid="1" page="0" gridSize="7" guides="1" tooltips="1" connect="1" arrows="1" fold="1" pageScale="1" pageWidth="850" pageHeight="1100" math="0" shadow="0">
      <root>
        <mxCell id="0" />
        <mxCell id="1" parent="0" />
        <mxCell id="kiMo4dvDTcyNfv0Px8VN-1" value="&lt;span style=&quot;font-size: 20px;&quot;&gt;&lt;b&gt;user opens app&lt;/b&gt;&lt;/span&gt;" style="ellipse;whiteSpace=wrap;html=1;fillColor=#a20025;fontColor=#ffffff;strokeColor=#6F0000;" vertex="1" parent="1">
          <mxGeometry x="310" y="10" width="190" height="80" as="geometry" />
        </mxCell>
        <mxCell id="kiMo4dvDTcyNfv0Px8VN-2" value="&lt;b&gt;&lt;font style=&quot;font-size: 27px;&quot;&gt;Enter phone&lt;/font&gt;&lt;/b&gt;&lt;div&gt;&lt;b&gt;&lt;font style=&quot;font-size: 27px;&quot;&gt;number&lt;/font&gt;&lt;/b&gt;&lt;/div&gt;" style="rounded=1;whiteSpace=wrap;html=1;fillColor=#d80073;fontColor=#ffffff;strokeColor=#A50040;" vertex="1" parent="1">
          <mxGeometry x="110" y="130" width="200" height="80" as="geometry" />
        </mxCell>
        <mxCell id="kiMo4dvDTcyNfv0Px8VN-3" value="&lt;font style=&quot;font-size: 28px;&quot;&gt;&lt;b&gt;verify OTP&lt;/b&gt;&lt;/font&gt;" style="rounded=1;whiteSpace=wrap;html=1;fillColor=#1ba1e2;fontColor=#ffffff;strokeColor=#006EAF;" vertex="1" parent="1">
          <mxGeometry x="500" y="230" width="210" height="80" as="geometry" />
        </mxCell>
        <mxCell id="kiMo4dvDTcyNfv0Px8VN-4" value="&lt;b&gt;&lt;font style=&quot;font-size: 27px;&quot;&gt;Enter address&lt;/font&gt;&lt;/b&gt;" style="shape=parallelogram;perimeter=parallelogramPerimeter;whiteSpace=wrap;html=1;fixedSize=1;fillColor=#60a917;fontColor=#ffffff;strokeColor=#2D7600;" vertex="1" parent="1">
          <mxGeometry x="110" y="320" width="210" height="90" as="geometry" />
        </mxCell>
        <mxCell id="kiMo4dvDTcyNfv0Px8VN-5" value="&lt;b&gt;&lt;font style=&quot;font-size: 27px;&quot;&gt;show near by&lt;/font&gt;&lt;/b&gt;&lt;div&gt;&lt;b&gt;&lt;font style=&quot;font-size: 27px;&quot;&gt;&amp;nbsp;restaurants&amp;nbsp;&lt;/font&gt;&lt;/b&gt;&lt;/div&gt;" style="shape=parallelogram;perimeter=parallelogramPerimeter;whiteSpace=wrap;html=1;fixedSize=1;fillColor=#008a00;fontColor=#ffffff;strokeColor=#005700;" vertex="1" parent="1">
          <mxGeometry x="500" y="470" width="200" height="100" as="geometry" />
        </mxCell>
        <mxCell id="kiMo4dvDTcyNfv0Px8VN-6" value="&lt;b&gt;&lt;font style=&quot;font-size: 24px;&quot;&gt;select restaurants&amp;nbsp;&lt;/font&gt;&lt;/b&gt;" style="rhombus;whiteSpace=wrap;html=1;fillColor=#0050ef;fontColor=#ffffff;strokeColor=#001DBC;" vertex="1" parent="1">
          <mxGeometry x="130" y="630" width="190" height="110" as="geometry" />
        </mxCell>
        <mxCell id="kiMo4dvDTcyNfv0Px8VN-7" value="&lt;b&gt;&lt;font style=&quot;font-size: 25px;&quot;&gt;show menu&lt;/font&gt;&lt;/b&gt;" style="rhombus;whiteSpace=wrap;html=1;fillColor=#e51400;fontColor=#ffffff;strokeColor=#B20000;" vertex="1" parent="1">
          <mxGeometry x="500" y="750" width="190" height="130" as="geometry" />
        </mxCell>
        <mxCell id="kiMo4dvDTcyNfv0Px8VN-8" value="&lt;b&gt;&lt;font style=&quot;font-size: 19px;&quot;&gt;add to cart&lt;/font&gt;&lt;/b&gt;" style="triangle;whiteSpace=wrap;html=1;fillColor=#fad7ac;strokeColor=#b46504;" vertex="1" parent="1">
          <mxGeometry x="189" y="952" width="112" height="115" as="geometry" />
        </mxCell>
        <mxCell id="kiMo4dvDTcyNfv0Px8VN-9" value="&lt;b&gt;&lt;font style=&quot;font-size: 21px;&quot;&gt;choose payment&lt;/font&gt;&lt;/b&gt;" style="triangle;whiteSpace=wrap;html=1;fillColor=#b0e3e6;strokeColor=#0e8088;" vertex="1" parent="1">
          <mxGeometry x="567" y="1120" width="140" height="105" as="geometry" />
        </mxCell>
        <mxCell id="kiMo4dvDTcyNfv0Px8VN-10" value="" style="endArrow=classic;startArrow=classic;html=1;rounded=0;" edge="1" parent="1">
          <mxGeometry width="50" height="50" relative="1" as="geometry">
            <mxPoint x="196" y="126" as="sourcePoint" />
            <mxPoint x="308" y="56" as="targetPoint" />
            <Array as="points">
              <mxPoint x="196" y="56" />
            </Array>
          </mxGeometry>
        </mxCell>
        <mxCell id="kiMo4dvDTcyNfv0Px8VN-11" value="" style="endArrow=classic;startArrow=classic;html=1;rounded=0;entryX=0.419;entryY=0;entryDx=0;entryDy=0;entryPerimeter=0;" edge="1" parent="1" target="kiMo4dvDTcyNfv0Px8VN-3">
          <mxGeometry width="50" height="50" relative="1" as="geometry">
            <mxPoint x="315" y="168" as="sourcePoint" />
            <mxPoint x="610" y="145" as="targetPoint" />
            <Array as="points">
              <mxPoint x="588" y="166" />
            </Array>
          </mxGeometry>
        </mxCell>
        <mxCell id="kiMo4dvDTcyNfv0Px8VN-12" value="" style="endArrow=classic;startArrow=classic;html=1;rounded=0;entryX=0;entryY=0.5;entryDx=0;entryDy=0;" edge="1" parent="1" source="kiMo4dvDTcyNfv0Px8VN-6" target="kiMo4dvDTcyNfv0Px8VN-5">
          <mxGeometry width="50" height="50" relative="1" as="geometry">
            <mxPoint x="200" y="526" as="sourcePoint" />
            <mxPoint x="250" y="476" as="targetPoint" />
            <Array as="points">
              <mxPoint x="224" y="518" />
            </Array>
          </mxGeometry>
        </mxCell>
        <mxCell id="kiMo4dvDTcyNfv0Px8VN-13" value="" style="endArrow=classic;startArrow=classic;html=1;rounded=0;exitX=1;exitY=0.5;exitDx=0;exitDy=0;entryX=0.623;entryY=0.007;entryDx=0;entryDy=0;entryPerimeter=0;" edge="1" parent="1" source="kiMo4dvDTcyNfv0Px8VN-4" target="kiMo4dvDTcyNfv0Px8VN-5">
          <mxGeometry width="50" height="50" relative="1" as="geometry">
            <mxPoint x="616" y="469" as="sourcePoint" />
            <mxPoint x="620" y="340" as="targetPoint" />
            <Array as="points">
              <mxPoint x="625" y="364" />
            </Array>
          </mxGeometry>
        </mxCell>
        <mxCell id="kiMo4dvDTcyNfv0Px8VN-14" value="" style="endArrow=classic;startArrow=classic;html=1;rounded=0;exitX=0.546;exitY=0.037;exitDx=0;exitDy=0;exitPerimeter=0;" edge="1" parent="1" source="kiMo4dvDTcyNfv0Px8VN-4">
          <mxGeometry width="50" height="50" relative="1" as="geometry">
            <mxPoint x="364" y="295" as="sourcePoint" />
            <mxPoint x="497" y="252" as="targetPoint" />
            <Array as="points">
              <mxPoint x="224" y="252" />
              <mxPoint x="371" y="252" />
            </Array>
          </mxGeometry>
        </mxCell>
        <mxCell id="kiMo4dvDTcyNfv0Px8VN-15" value="" style="endArrow=classic;startArrow=classic;html=1;rounded=0;entryX=0.467;entryY=0.041;entryDx=0;entryDy=0;entryPerimeter=0;" edge="1" parent="1" source="kiMo4dvDTcyNfv0Px8VN-6" target="kiMo4dvDTcyNfv0Px8VN-7">
          <mxGeometry width="50" height="50" relative="1" as="geometry">
            <mxPoint x="546" y="694" as="sourcePoint" />
            <mxPoint x="596" y="644" as="targetPoint" />
            <Array as="points">
              <mxPoint x="588" y="685" />
            </Array>
          </mxGeometry>
        </mxCell>
        <mxCell id="kiMo4dvDTcyNfv0Px8VN-16" value="" style="endArrow=classic;startArrow=classic;html=1;rounded=0;entryX=0;entryY=0.5;entryDx=0;entryDy=0;exitX=0.226;exitY=0.14;exitDx=0;exitDy=0;exitPerimeter=0;" edge="1" parent="1" source="kiMo4dvDTcyNfv0Px8VN-8" target="kiMo4dvDTcyNfv0Px8VN-7">
          <mxGeometry width="50" height="50" relative="1" as="geometry">
            <mxPoint x="200" y="834" as="sourcePoint" />
            <mxPoint x="250" y="784" as="targetPoint" />
            <Array as="points">
              <mxPoint x="217" y="815" />
            </Array>
          </mxGeometry>
        </mxCell>
        <mxCell id="kiMo4dvDTcyNfv0Px8VN-17" value="" style="endArrow=classic;startArrow=classic;html=1;rounded=0;exitX=0.688;exitY=0.304;exitDx=0;exitDy=0;exitPerimeter=0;" edge="1" parent="1" source="kiMo4dvDTcyNfv0Px8VN-8" target="kiMo4dvDTcyNfv0Px8VN-9">
          <mxGeometry width="50" height="50" relative="1" as="geometry">
            <mxPoint x="280" y="987" as="sourcePoint" />
            <mxPoint x="561" y="938" as="targetPoint" />
            <Array as="points">
              <mxPoint x="301" y="980" />
              <mxPoint x="637" y="980" />
            </Array>
          </mxGeometry>
        </mxCell>
        <mxCell id="kiMo4dvDTcyNfv0Px8VN-18" value="&lt;b&gt;&lt;font style=&quot;font-size: 20px;&quot;&gt;cash on&lt;/font&gt;&lt;/b&gt;&lt;div&gt;&lt;b&gt;&lt;font style=&quot;font-size: 20px;&quot;&gt;delivery&lt;/font&gt;&lt;/b&gt;&lt;/div&gt;" style="shape=cube;whiteSpace=wrap;html=1;boundedLbl=1;backgroundOutline=1;darkOpacity=0.05;darkOpacity2=0.1;fillColor=#dae8fc;gradientColor=#7ea6e0;strokeColor=#6c8ebf;" vertex="1" parent="1">
          <mxGeometry x="406" y="1267" width="120" height="80" as="geometry" />
        </mxCell>
        <mxCell id="kiMo4dvDTcyNfv0Px8VN-19" value="&lt;b&gt;&lt;font style=&quot;font-size: 23px;&quot;&gt;UPI card&lt;/font&gt;&lt;/b&gt;" style="shape=cube;whiteSpace=wrap;html=1;boundedLbl=1;backgroundOutline=1;darkOpacity=0.05;darkOpacity2=0.1;fillColor=#d5e8d4;gradientColor=#97d077;strokeColor=#82b366;" vertex="1" parent="1">
          <mxGeometry x="770" y="1274" width="120" height="80" as="geometry" />
        </mxCell>
        <mxCell id="kiMo4dvDTcyNfv0Px8VN-20" value="&lt;b&gt;&lt;font style=&quot;font-size: 27px;&quot;&gt;place&amp;nbsp;&lt;/font&gt;&lt;/b&gt;&lt;div&gt;&lt;b&gt;&lt;font style=&quot;font-size: 27px;&quot;&gt;order&lt;/font&gt;&lt;/b&gt;&lt;/div&gt;" style="ellipse;whiteSpace=wrap;html=1;aspect=fixed;fillColor=#ffcd28;gradientColor=#ffa500;strokeColor=#d79b00;" vertex="1" parent="1">
          <mxGeometry x="585" y="1414" width="115" height="115" as="geometry" />
        </mxCell>
        <mxCell id="kiMo4dvDTcyNfv0Px8VN-21" value="&lt;b&gt;&lt;font style=&quot;font-size: 36px;&quot;&gt;order confirmed&lt;/font&gt;&lt;/b&gt;" style="rounded=0;whiteSpace=wrap;html=1;fillColor=#f8cecc;gradientColor=#ea6b66;strokeColor=#b85450;" vertex="1" parent="1">
          <mxGeometry x="518" y="1617" width="203" height="95" as="geometry" />
        </mxCell>
        <mxCell id="U80LMz2ntIHu516sW_yY-2" value="" style="endArrow=classic;startArrow=classic;html=1;rounded=0;fontSize=12;startSize=8;endSize=8;curved=1;entryX=0.306;entryY=0.012;entryDx=0;entryDy=0;entryPerimeter=0;" edge="1" parent="1" target="kiMo4dvDTcyNfv0Px8VN-18">
          <mxGeometry width="50" height="50" relative="1" as="geometry">
            <mxPoint x="560" y="1176" as="sourcePoint" />
            <mxPoint x="491" y="1155" as="targetPoint" />
            <Array as="points">
              <mxPoint x="443" y="1183" />
            </Array>
          </mxGeometry>
        </mxCell>
        <mxCell id="U80LMz2ntIHu516sW_yY-3" value="" style="endArrow=classic;startArrow=classic;html=1;rounded=0;fontSize=12;startSize=8;endSize=8;curved=1;exitX=0.522;exitY=0.004;exitDx=0;exitDy=0;exitPerimeter=0;entryX=1;entryY=0.5;entryDx=0;entryDy=0;" edge="1" parent="1" source="kiMo4dvDTcyNfv0Px8VN-19" target="kiMo4dvDTcyNfv0Px8VN-9">
          <mxGeometry width="50" height="50" relative="1" as="geometry">
            <mxPoint x="710" y="1219" as="sourcePoint" />
            <mxPoint x="760" y="1169" as="targetPoint" />
            <Array as="points">
              <mxPoint x="798" y="1176" />
            </Array>
          </mxGeometry>
        </mxCell>
        <mxCell id="U80LMz2ntIHu516sW_yY-4" value="" style="endArrow=classic;startArrow=classic;html=1;rounded=0;fontSize=12;startSize=8;endSize=8;curved=1;entryX=0;entryY=0;entryDx=70;entryDy=80;entryPerimeter=0;exitX=0.045;exitY=0.357;exitDx=0;exitDy=0;exitPerimeter=0;" edge="1" parent="1" source="kiMo4dvDTcyNfv0Px8VN-20" target="kiMo4dvDTcyNfv0Px8VN-18">
          <mxGeometry width="50" height="50" relative="1" as="geometry">
            <mxPoint x="546" y="1380" as="sourcePoint" />
            <mxPoint x="596" y="1330" as="targetPoint" />
            <Array as="points">
              <mxPoint x="462" y="1393" />
            </Array>
          </mxGeometry>
        </mxCell>
        <mxCell id="U80LMz2ntIHu516sW_yY-5" value="" style="endArrow=classic;startArrow=classic;html=1;rounded=0;fontSize=12;startSize=8;endSize=8;curved=1;entryX=0.525;entryY=1.05;entryDx=0;entryDy=0;entryPerimeter=0;exitX=1.017;exitY=0.388;exitDx=0;exitDy=0;exitPerimeter=0;" edge="1" parent="1" source="kiMo4dvDTcyNfv0Px8VN-20">
          <mxGeometry width="50" height="50" relative="1" as="geometry">
            <mxPoint x="665" y="1452" as="sourcePoint" />
            <mxPoint x="830.5" y="1354" as="targetPoint" />
            <Array as="points">
              <mxPoint x="728" y="1449" />
              <mxPoint x="798" y="1421" />
            </Array>
          </mxGeometry>
        </mxCell>
        <mxCell id="U80LMz2ntIHu516sW_yY-6" value="" style="endArrow=classic;startArrow=classic;html=1;rounded=0;fontSize=12;startSize=8;endSize=8;curved=1;exitX=0.565;exitY=0.018;exitDx=0;exitDy=0;exitPerimeter=0;" edge="1" parent="1" source="kiMo4dvDTcyNfv0Px8VN-21">
          <mxGeometry width="50" height="50" relative="1" as="geometry">
            <mxPoint x="612" y="1597" as="sourcePoint" />
            <mxPoint x="633" y="1533" as="targetPoint" />
            <Array as="points">
              <mxPoint x="633" y="1575" />
            </Array>
          </mxGeometry>
        </mxCell>
      </root>
    </mxGraphModel>
  </diagram>
</mxfile>
